# xmcd
#
# Track frame offsets:
#	150
#	13000
#	24917
#	35267
#	46442
#	58877
#	69197
#	82075
#	93347
#	103590
#	113797
#	124725
#	136577
#	146082
#	158577
#	175080
#	186070
#	199602
#	209982
#	222465
#
# Disc length: 3121 seconds
#
# Revision: 0
# Processed by: cddbd v1.5.1PL2 Copyright (c) Steve Scherf et al.
# Submitted via: dBpowerAMP V4.0
#
DISCID=1a0c2f14
DTITLE=Mixed Artists - Country Compilation Vol 4
DYEAR=1995
DGENRE=Country
TTITLE0=Jerry Wallace - Shutters and Boards
TTITLE1=Conway Twitty - Crazy Dreams
TTITLE2=Glen Campbell - Walk Right In
TTITLE3=Jeannie C Riley - Box Of Memories
TTITLE4=Charlie Rich - My Heart Cries For You
TTITLE5=Glen Campbell - Train Of Love
TTITLE6=George Jones - I Love You Because
TTITLE7=David Houston - Miss Brown
TTITLE8=Jan Howard - I Wish I Could Fall In Love Again
TTITLE9=Dave Dudley - Oh Lonesome Me
TTITLE10=Patsy Cline - Stop The World
TTITLE11=Faron Young - I Heard The Juke Box Playing
TTITLE12=Johnny Cash - Rock Island Line
TTITLE13=Lester Flatt and Earl Scuggs - Doing My Time
TTITLE14=Roger Miller - Honey
TTITLE15=J Paycheck - Heartbeak Tennessee
TTITLE16=Tilman Frank Singers - Your Cheatin Heart
TTITLE17=Jerry Smith - Misty Blue
TTITLE18=Ferlin Husky - The Letter You Promised To Write
TTITLE19=Johnny Cash - Your Nearest Thing To Heaven
EXTD=
EXTT0=
EXTT1=
EXTT2=
EXTT3=
EXTT4=
EXTT5=
EXTT6=
EXTT7=
EXTT8=
EXTT9=
EXTT10=
EXTT11=
EXTT12=
EXTT13=
EXTT14=
EXTT15=
EXTT16=
EXTT17=
EXTT18=
EXTT19=
PLAYORDER=
